<svg width="22" height="23" viewBox="0 0 22 23" fill="none" xmlns="http://www.w3.org/2000/svg">
<path d="M14.9531 10.8242H11.6875V7.55859C11.6875 7.46406 11.6102 7.38672 11.5156 7.38672H10.4844C10.3898 7.38672 10.3125 7.46406 10.3125 7.55859V10.8242H7.04688C6.95234 10.8242 6.875 10.9016 6.875 10.9961V12.0273C6.875 12.1219 6.95234 12.1992 7.04688 12.1992H10.3125V15.4648C10.3125 15.5594 10.3898 15.6367 10.4844 15.6367H11.5156C11.6102 15.6367 11.6875 15.5594 11.6875 15.4648V12.1992H14.9531C15.0477 12.1992 15.125 12.1219 15.125 12.0273V10.9961C15.125 10.9016 15.0477 10.8242 14.9531 10.8242Z" fill="#262626"/>
<path d="M11 1.88672C5.68477 1.88672 1.375 6.19648 1.375 11.5117C1.375 16.827 5.68477 21.1367 11 21.1367C16.3152 21.1367 20.625 16.827 20.625 11.5117C20.625 6.19648 16.3152 1.88672 11 1.88672ZM11 19.5039C6.58711 19.5039 3.00781 15.9246 3.00781 11.5117C3.00781 7.09883 6.58711 3.51953 11 3.51953C15.4129 3.51953 18.9922 7.09883 18.9922 11.5117C18.9922 15.9246 15.4129 19.5039 11 19.5039Z" fill="#262626"/>
</svg>
