<svg width="47" height="34" viewBox="0 0 47 34" fill="none" xmlns="http://www.w3.org/2000/svg">
<path d="M1.07843 33.9999C0.79085 33.9999 0.532026 33.894 0.301961 33.6822C0.100654 33.4401 0 33.1677 0 32.865V3.35709C0 3.02418 0.100654 2.7518 0.301961 2.53995C0.532026 2.32809 0.79085 2.22217 1.07843 2.22217H6.77255C7.08889 2.22217 7.34771 2.32809 7.54902 2.53995C7.75033 2.7518 7.85098 3.02418 7.85098 3.35709V27.145H20.9216C21.2379 27.145 21.4967 27.2661 21.698 27.5082C21.8993 27.7201 22 27.9924 22 28.3253V32.865C22 33.1677 21.8993 33.4401 21.698 33.6822C21.4967 33.894 21.2379 33.9999 20.9216 33.9999H1.07843Z" fill="white"/>
<path d="M13.4445 15.6667L28.535 2.25287C29.3265 1.54934 30.5291 1.58468 31.2779 2.33347L44.6111 15.6667" stroke="white" stroke-width="2"/>
<path d="M16.2884 23.7822C14.6387 23.7822 13.3681 23.3976 12.4768 22.6284C11.5854 21.8592 11.0998 20.7771 11.02 19.3822C11.0067 19.2127 11 18.9194 11 18.5022C11 18.085 11.0067 17.7917 11.02 17.6222C11.0998 16.2402 11.5987 15.1647 12.5167 14.3955C13.4346 13.6133 14.6919 13.2222 16.2884 13.2222C17.8982 13.2222 19.1621 13.6133 20.08 14.3955C20.998 15.1647 21.4969 16.2402 21.5768 17.6222C21.5901 17.7917 21.5967 18.085 21.5967 18.5022C21.5967 18.9194 21.5901 19.2127 21.5768 19.3822C21.4969 20.7771 21.0113 21.8592 20.12 22.6284C19.2286 23.3976 17.9514 23.7822 16.2884 23.7822ZM16.2884 21.3964C16.8738 21.3964 17.3061 21.2269 17.5855 20.8879C17.8649 20.5359 18.0246 20.0014 18.0645 19.2844C18.0778 19.154 18.0844 18.8933 18.0844 18.5022C18.0844 18.1111 18.0778 17.8503 18.0645 17.7199C18.0246 17.0159 17.8583 16.4879 17.5656 16.1359C17.2862 15.7839 16.8605 15.6079 16.2884 15.6079C15.1841 15.6079 14.5988 16.3119 14.5322 17.7199L14.5123 18.5022L14.5322 19.2844C14.5588 20.0014 14.7118 20.5359 14.9912 20.8879C15.2839 21.2269 15.7163 21.3964 16.2884 21.3964Z" fill="white"/>
<path d="M28.6677 27.8888C27.4038 27.8888 26.3794 27.6868 25.5945 27.2826C24.8095 26.8785 24.2441 26.4157 23.8982 25.8942C23.5656 25.3727 23.3993 24.9359 23.3993 24.5839C23.3993 24.4666 23.4525 24.3623 23.559 24.2711C23.6654 24.1798 23.7851 24.1342 23.9182 24.1342H26.4526C26.5856 24.1342 26.6854 24.1602 26.7519 24.2124C26.8318 24.2776 26.9049 24.3819 26.9715 24.5253C27.1045 24.8251 27.2841 25.0598 27.5103 25.2293C27.7364 25.4118 28.089 25.5031 28.568 25.5031C29.1799 25.5031 29.6323 25.3531 29.925 25.0533C30.2177 24.7665 30.364 24.2776 30.364 23.5866V22.2764C29.6855 23.0065 28.7143 23.3715 27.4504 23.3715C26.1067 23.3715 25.0756 22.9869 24.3572 22.2177C23.6521 21.4355 23.2663 20.3078 23.1997 18.8346L23.1798 18.3066C23.1798 16.7291 23.539 15.4906 24.2574 14.5911C24.9758 13.6785 26.0402 13.2222 27.4504 13.2222C28.1289 13.2222 28.7276 13.3525 29.2465 13.6133C29.7653 13.861 30.2044 14.1999 30.5636 14.6302V13.9066C30.5636 13.7632 30.6101 13.6459 30.7033 13.5546C30.8097 13.4634 30.9294 13.4177 31.0625 13.4177H33.3574C33.5038 13.4177 33.6235 13.4699 33.7166 13.5742C33.8231 13.6654 33.8763 13.7762 33.8763 13.9066V23.3128C33.8763 24.7991 33.4239 25.9333 32.5193 26.7155C31.6146 27.4977 30.3307 27.8888 28.6677 27.8888ZM28.528 20.8293C29.1267 20.8293 29.5724 20.6533 29.8651 20.3013C30.1578 19.9362 30.3241 19.4799 30.364 18.9324C30.3773 18.8411 30.384 18.6391 30.384 18.3262C30.384 18.0263 30.3773 17.8308 30.364 17.7395C30.3374 17.1919 30.1711 16.7422 29.8651 16.3902C29.5724 16.0251 29.1267 15.8426 28.528 15.8426C27.9027 15.8426 27.4504 16.0251 27.171 16.3902C26.8916 16.7552 26.7386 17.2571 26.712 17.8959L26.6921 18.3262C26.6921 19.0954 26.8251 19.7081 27.0912 20.1644C27.3573 20.6076 27.8362 20.8293 28.528 20.8293Z" fill="white"/>
<path d="M41.1361 23.7822C39.4864 23.7822 38.2159 23.3976 37.3245 22.6284C36.4331 21.8592 35.9475 20.7771 35.8677 19.3822C35.8544 19.2127 35.8477 18.9194 35.8477 18.5022C35.8477 18.085 35.8544 17.7917 35.8677 17.6222C35.9475 16.2402 36.4464 15.1647 37.3644 14.3955C38.2824 13.6133 39.5396 13.2222 41.1361 13.2222C42.7459 13.2222 44.0098 13.6133 44.9278 14.3955C45.8458 15.1647 46.3447 16.2402 46.4245 17.6222C46.4378 17.7917 46.4444 18.085 46.4444 18.5022C46.4444 18.9194 46.4378 19.2127 46.4245 19.3822C46.3447 20.7771 45.8591 21.8592 44.9677 22.6284C44.0763 23.3976 42.7991 23.7822 41.1361 23.7822ZM41.1361 21.3964C41.7215 21.3964 42.1539 21.2269 42.4333 20.8879C42.7126 20.5359 42.8723 20.0014 42.9122 19.2844C42.9255 19.154 42.9322 18.8933 42.9322 18.5022C42.9322 18.1111 42.9255 17.8503 42.9122 17.7199C42.8723 17.0159 42.706 16.4879 42.4133 16.1359C42.1339 15.7839 41.7082 15.6079 41.1361 15.6079C40.0319 15.6079 39.4465 16.3119 39.38 17.7199L39.36 18.5022L39.38 19.2844C39.4066 20.0014 39.5596 20.5359 39.839 20.8879C40.1317 21.2269 40.564 21.3964 41.1361 21.3964Z" fill="white"/>
</svg>
